# xmcd
#
# Track frame offsets: 
#        150
#        13663
#        25380
#        42024
#        57480
#        74234
#        87860
#        104527
#        119651
#        134978
#        152746
#        168842
#        184484
#
# Disc length: 2645 seconds
#
# Revision: 0
# Processed by: cddbd v1.5.2PL0 Copyright (c) Steve Scherf et al.
# Submitted via: ExactAudioCopy v1.3
#
DISCID=c40a530d
DTITLE=Crazy Hambones, Micha Maass - Beautiful
DYEAR=2019
DGENRE=Blues
TTITLE0=Who's Gonna Take These Blues Away
TTITLE1=Your God Is a Dollar
TTITLE2=Your Time Now
TTITLE3=Behind the Sun
TTITLE4=Out of My Head
TTITLE5=Beautiful
TTITLE6=Can't Judge a Book
TTITLE7=Leave My Money Alone
TTITLE8=Bullfrog Blues
TTITLE9=Cornbread, Peas and Black Molasses
TTITLE10=Wild Wild Woman
TTITLE11=Boogie Around the World
TTITLE12=No Disputation
EXTD=
EXTT0=
EXTT1=
EXTT2=
EXTT3=
EXTT4=
EXTT5=
EXTT6=
EXTT7=
EXTT8=
EXTT9=
EXTT10=
EXTT11=
EXTT12=
PLAYORDER=
